<mxfile host="65bd71144e">
    <diagram id="tSSmnuXAkAECprOrDNFG" name="データ永続化">
        <mxGraphModel dx="1386" dy="825" grid="1" gridSize="10" guides="1" tooltips="1" connect="1" arrows="1" fold="1" page="1" pageScale="1" pageWidth="827" pageHeight="1169" math="0" shadow="0">
            <root>
                <mxCell id="0"/>
                <mxCell id="1" parent="0"/>
                <mxCell id="2" value="cd データ永続化" style="shape=umlFrame;whiteSpace=wrap;html=1;width=120;height=30;boundedLbl=1;verticalAlign=middle;align=left;spacingLeft=5;swimlaneFillColor=default;" parent="1" vertex="1">
                    <mxGeometry x="20" y="90" width="710" height="310" as="geometry"/>
                </mxCell>
                <mxCell id="7" value="Usecase" style="html=1;fontStyle=4" parent="1" vertex="1">
                    <mxGeometry x="200" y="190" width="110" height="50" as="geometry"/>
                </mxCell>
                <mxCell id="8" value="DataStore" style="html=1;fontStyle=4" parent="1" vertex="1">
                    <mxGeometry x="340" y="335" width="110" height="50" as="geometry"/>
                </mxCell>
                <mxCell id="9" value="Repository" style="html=1;fontStyle=4" parent="1" vertex="1">
                    <mxGeometry x="413" y="190" width="110" height="50" as="geometry"/>
                </mxCell>
                <mxCell id="10" value="Entity" style="html=1;fontStyle=4" parent="1" vertex="1">
                    <mxGeometry x="450" y="260" width="110" height="50" as="geometry"/>
                </mxCell>
                <mxCell id="11" value="ValueObject" style="html=1;fontStyle=4" parent="1" vertex="1">
                    <mxGeometry x="610" y="300" width="110" height="50" as="geometry"/>
                </mxCell>
                <mxCell id="22" value="App" style="html=1;fontStyle=4" parent="1" vertex="1">
                    <mxGeometry x="50" y="130" width="110" height="50" as="geometry"/>
                </mxCell>
                <mxCell id="24" value="1. 設定値保存(保存パス)" style="html=1;verticalAlign=bottom;labelBackgroundColor=none;endArrow=open;endFill=0;" parent="1" source="22" target="7" edge="1">
                    <mxGeometry x="-0.4276" y="-22" width="160" relative="1" as="geometry">
                        <mxPoint x="280" y="320" as="sourcePoint"/>
                        <mxPoint x="440" y="320" as="targetPoint"/>
                        <Array as="points">
                            <mxPoint x="100" y="220"/>
                        </Array>
                        <mxPoint x="-11" y="-2" as="offset"/>
                    </mxGeometry>
                </mxCell>
                <mxCell id="25" value="1-1. Entity取得" style="html=1;verticalAlign=bottom;labelBackgroundColor=none;endArrow=open;endFill=0;" parent="1" source="7" target="9" edge="1">
                    <mxGeometry width="160" relative="1" as="geometry">
                        <mxPoint x="280" y="320" as="sourcePoint"/>
                        <mxPoint x="440" y="320" as="targetPoint"/>
                    </mxGeometry>
                </mxCell>
                <mxCell id="26" value="1-2. 設定値json取得" style="html=1;verticalAlign=bottom;labelBackgroundColor=none;endArrow=open;endFill=0;" parent="1" source="7" target="10" edge="1">
                    <mxGeometry width="160" relative="1" as="geometry">
                        <mxPoint x="270" y="290" as="sourcePoint"/>
                        <mxPoint x="470" y="290" as="targetPoint"/>
                        <Array as="points">
                            <mxPoint x="330" y="285"/>
                        </Array>
                    </mxGeometry>
                </mxCell>
                <mxCell id="27" value="1-2-1. 設定値json取得" style="html=1;verticalAlign=bottom;labelBackgroundColor=none;endArrow=open;endFill=0;" parent="1" source="10" target="11" edge="1">
                    <mxGeometry width="160" relative="1" as="geometry">
                        <mxPoint x="330" y="235" as="sourcePoint"/>
                        <mxPoint x="530" y="235" as="targetPoint"/>
                        <Array as="points">
                            <mxPoint x="500" y="330"/>
                        </Array>
                    </mxGeometry>
                </mxCell>
                <mxCell id="28" value="1-3. json保存(保存パス)" style="html=1;verticalAlign=bottom;labelBackgroundColor=none;endArrow=open;endFill=0;" parent="1" source="7" target="8" edge="1">
                    <mxGeometry width="160" relative="1" as="geometry">
                        <mxPoint x="340" y="245" as="sourcePoint"/>
                        <mxPoint x="540" y="245" as="targetPoint"/>
                        <Array as="points">
                            <mxPoint x="240" y="360"/>
                        </Array>
                    </mxGeometry>
                </mxCell>
            </root>
        </mxGraphModel>
    </diagram>
    <diagram id="o52IZ32zdicpHdGbvZ0Q" name="データ読み込み">
        <mxGraphModel dx="1386" dy="825" grid="1" gridSize="10" guides="1" tooltips="1" connect="1" arrows="1" fold="1" page="1" pageScale="1" pageWidth="827" pageHeight="1169" math="0" shadow="0">
            <root>
                <mxCell id="0"/>
                <mxCell id="1" parent="0"/>
                <mxCell id="2KClH39hQaHsoaeSfs-2-1" value="cd データ読み込み" style="shape=umlFrame;whiteSpace=wrap;html=1;width=120;height=30;boundedLbl=1;verticalAlign=middle;align=left;spacingLeft=5;swimlaneFillColor=default;" parent="1" vertex="1">
                    <mxGeometry x="20" y="90" width="710" height="310" as="geometry"/>
                </mxCell>
                <mxCell id="2KClH39hQaHsoaeSfs-2-2" value="Usecase" style="html=1;fontStyle=4" parent="1" vertex="1">
                    <mxGeometry x="200" y="190" width="110" height="50" as="geometry"/>
                </mxCell>
                <mxCell id="2KClH39hQaHsoaeSfs-2-3" value="DataStore" style="html=1;fontStyle=4" parent="1" vertex="1">
                    <mxGeometry x="340" y="335" width="110" height="50" as="geometry"/>
                </mxCell>
                <mxCell id="2KClH39hQaHsoaeSfs-2-4" value="Repository" style="html=1;fontStyle=4" parent="1" vertex="1">
                    <mxGeometry x="413" y="190" width="110" height="50" as="geometry"/>
                </mxCell>
                <mxCell id="2KClH39hQaHsoaeSfs-2-5" value="Entity" style="html=1;fontStyle=4" parent="1" vertex="1">
                    <mxGeometry x="450" y="260" width="110" height="50" as="geometry"/>
                </mxCell>
                <mxCell id="2KClH39hQaHsoaeSfs-2-6" value="ValueObject" style="html=1;fontStyle=4" parent="1" vertex="1">
                    <mxGeometry x="610" y="300" width="110" height="50" as="geometry"/>
                </mxCell>
                <mxCell id="2KClH39hQaHsoaeSfs-2-7" value="App" style="html=1;fontStyle=4" parent="1" vertex="1">
                    <mxGeometry x="50" y="130" width="110" height="50" as="geometry"/>
                </mxCell>
                <mxCell id="2KClH39hQaHsoaeSfs-2-8" value="1. 設定値読み込み(読み込みパス)" style="html=1;verticalAlign=bottom;labelBackgroundColor=none;endArrow=open;endFill=0;" parent="1" source="2KClH39hQaHsoaeSfs-2-7" target="2KClH39hQaHsoaeSfs-2-2" edge="1">
                    <mxGeometry x="-0.3655" y="-20" width="160" relative="1" as="geometry">
                        <mxPoint x="280" y="320" as="sourcePoint"/>
                        <mxPoint x="440" y="320" as="targetPoint"/>
                        <Array as="points">
                            <mxPoint x="100" y="220"/>
                        </Array>
                        <mxPoint as="offset"/>
                    </mxGeometry>
                </mxCell>
                <mxCell id="2KClH39hQaHsoaeSfs-2-9" value="1-2. Entity取得" style="html=1;verticalAlign=bottom;labelBackgroundColor=none;endArrow=open;endFill=0;" parent="1" source="2KClH39hQaHsoaeSfs-2-2" target="2KClH39hQaHsoaeSfs-2-4" edge="1">
                    <mxGeometry width="160" relative="1" as="geometry">
                        <mxPoint x="280" y="320" as="sourcePoint"/>
                        <mxPoint x="440" y="320" as="targetPoint"/>
                    </mxGeometry>
                </mxCell>
                <mxCell id="2KClH39hQaHsoaeSfs-2-10" value="1-3. 設定値展開" style="html=1;verticalAlign=bottom;labelBackgroundColor=none;endArrow=open;endFill=0;" parent="1" source="2KClH39hQaHsoaeSfs-2-2" target="2KClH39hQaHsoaeSfs-2-5" edge="1">
                    <mxGeometry width="160" relative="1" as="geometry">
                        <mxPoint x="270" y="290" as="sourcePoint"/>
                        <mxPoint x="470" y="290" as="targetPoint"/>
                        <Array as="points">
                            <mxPoint x="330" y="285"/>
                        </Array>
                    </mxGeometry>
                </mxCell>
                <mxCell id="2KClH39hQaHsoaeSfs-2-11" value="1-3-1. 設定値展開" style="html=1;verticalAlign=bottom;labelBackgroundColor=none;endArrow=open;endFill=0;" parent="1" source="2KClH39hQaHsoaeSfs-2-5" target="2KClH39hQaHsoaeSfs-2-6" edge="1">
                    <mxGeometry width="160" relative="1" as="geometry">
                        <mxPoint x="330" y="235" as="sourcePoint"/>
                        <mxPoint x="530" y="235" as="targetPoint"/>
                        <Array as="points">
                            <mxPoint x="500" y="330"/>
                        </Array>
                    </mxGeometry>
                </mxCell>
                <mxCell id="2KClH39hQaHsoaeSfs-2-12" value="1-2. json読み込み(読み込みパス)" style="html=1;verticalAlign=bottom;labelBackgroundColor=none;endArrow=open;endFill=0;" parent="1" source="2KClH39hQaHsoaeSfs-2-2" target="2KClH39hQaHsoaeSfs-2-3" edge="1">
                    <mxGeometry width="160" relative="1" as="geometry">
                        <mxPoint x="340" y="245" as="sourcePoint"/>
                        <mxPoint x="540" y="245" as="targetPoint"/>
                        <Array as="points">
                            <mxPoint x="240" y="360"/>
                        </Array>
                    </mxGeometry>
                </mxCell>
                <mxCell id="2KClH39hQaHsoaeSfs-2-13" value="1-4. Entity保存" style="html=1;verticalAlign=bottom;labelBackgroundColor=none;endArrow=open;endFill=0;" parent="1" source="2KClH39hQaHsoaeSfs-2-2" target="2KClH39hQaHsoaeSfs-2-4" edge="1">
                    <mxGeometry width="160" relative="1" as="geometry">
                        <mxPoint x="320" y="225" as="sourcePoint"/>
                        <mxPoint x="423" y="225" as="targetPoint"/>
                        <Array as="points">
                            <mxPoint x="350" y="140"/>
                        </Array>
                    </mxGeometry>
                </mxCell>
            </root>
        </mxGraphModel>
    </diagram>
</mxfile>